PathFileType	4	(X/Y/Z)	./resultDataOpenSim/trcMotMarkerGrf/sub10/qtm-02-08.trc
DataRate	CameraRate	NumFrames	NumMarkers	Units	OrigDataRate	OrigDataStartFrame	OrigNumFrames
250.000000	250.000000	9	24	m	250.000000	355	473
Frame#	Time	L.Toe.Tip			R.Toe.Tip			L.Ankle.Lat			R.Ankle.Lat			L.Ankle.Med			R.Ankle.Med			L.Heel			R.Heel			L.Knee.Lat			R.Knee.Lat			L.Knee.Med			R.Knee.Med			L.Thigh.Upper			R.Thigh.Upper			L.ASIS			R.ASIS			V.Sacral			L.Acromium			R.Acromium			C7			L.Elbow			R.Elbow			L.Wrist.Lat			R.Wrist.Lat
		X1	Y1	Z1	X2	Y2	Z2	X3	Y3	Z3	X4	Y4	Z4	X5	Y5	Z5	X6	Y6	Z6	X7	Y7	Z7	X8	Y8	Z8	X9	Y9	Z9	X10	Y10	Z10	X11	Y11	Z11	X12	Y12	Z12	X13	Y13	Z13	X14	Y14	Z14	X15	Y15	Z15	X16	Y16	Z16	X17	Y17	Z17	X18	Y18	Z18	X19	Y19	Z19	X20	Y20	Z20	X21	Y21	Z21	X22	Y22	Z22	X23	Y23	Z23	X24	Y24	Z24

355	1.416	0.58257675	0.074545578	-0.13488281	0.8936877	0.038599954	0.048904261	0.51586724	0.19415558	-0.14585589	0.7525997	0.055160834	0.092150605	0.54238336	0.19511399	-0.064880948	0.76955524	0.08145766	0.0074062744	0.45283112	0.21377447	-0.092349996	0.69919625	0.032441432	0.048723783	0.80337145	0.44148673	-0.16486148	0.83536898	0.45009346	0.12236241	0.82385708	0.40636554	-0.047702968	0.82436705	0.45697441	-0.0065324537	0.73479752	0.81559256	-0.18799581	0.81599753	0.86981454	0.17954699	0.80082241	0.93708926	-0.14807071	0.8598205	0.96171594	0.087096015	0.63212571	0.95358719	0.018032923	0.73150515	1.4235857	-0.16429403	0.7448126	1.4162257	0.15800949	0.65292323	1.4394037	-0.0048615302	0.66436817	1.0890257	-0.247997	0.65774023	1.0793165	0.22142537	0.82924984	0.90546058	-0.25667147	0.7809754	0.87876933	0.28709791
356	1.42	0.60070994	0.074113169	-0.13453586	0.89373054	0.038598661	0.048972551	0.5304386	0.19168095	-0.14484315	0.75305844	0.05522064	0.091881505	0.55703404	0.19302257	-0.06386548	0.76972397	0.081733052	0.007452947	0.46693986	0.20963261	-0.091240548	0.69932074	0.032717034	0.048530525	0.81443272	0.44398976	-0.16396484	0.83586759	0.4502575	0.12293805	0.83421489	0.40905973	-0.046687517	0.82442008	0.45711551	-0.0059688596	0.74279761	0.81717572	-0.18842361	0.82005117	0.87013489	0.17971641	0.8073731	0.93913555	-0.1474848	0.86482189	0.96253888	0.087742226	0.63817669	0.95489836	0.0170736	0.73706553	1.4250542	-0.16423323	0.75045325	1.4177764	0.15801396	0.65868813	1.4407704	-0.0048070032	0.66803061	1.0910027	-0.24768881	0.66548569	1.0801836	0.22215519	0.83007076	0.9051302	-0.25712045	0.79256661	0.88119016	0.28679051
357	1.424	0.61876128	0.073609068	-0.13417046	0.89377234	0.038594946	0.049043851	0.54513872	0.18907521	-0.143802	0.75338453	0.055325998	0.09165958	0.57184658	0.19075574	-0.062838163	0.76984435	0.082034219	0.007553296	0.48124145	0.20533557	-0.090088548	0.69943045	0.033017074	0.048353673	0.82537459	0.44649099	-0.16311404	0.83635236	0.45044057	0.12352857	0.84466487	0.41168704	-0.045744826	0.82411078	0.45728225	-0.0055728916	0.7505628	0.81886005	-0.18904601	0.8240641	0.87040194	0.17992916	0.81391283	0.94108338	-0.1468726	0.86979936	0.96327391	0.088430283	0.64521889	0.95620409	0.016281614	0.74263614	1.4264508	-0.16416657	0.75608463	1.4192732	0.158019	0.66445	1.4420609	-0.004766635	0.67168398	1.0929347	-0.24739746	0.67333854	1.0809856	0.22298996	0.83092987	0.90483134	-0.25753921	0.80411435	0.88363248	0.28648776
358	1.428	0.63676199	0.073020922	-0.13382082	0.89381813	0.038585297	0.049115704	0.55999272	0.18633529	-0.14275433	0.75347199	0.055523088	0.091561678	0.58704287	0.18831184	-0.061884063	0.76994646	0.082356787	0.0076814409	0.49573144	0.20089826	-0.088885713	0.6994652	0.033322773	0.04821989	0.83618173	0.44896614	-0.16232149	0.83681776	0.45064867	0.12413355	0.85518081	0.41425441	-0.04487007	0.82389346	0.4574704	-0.0052008251	0.75817422	0.82069819	-0.18971654	0.82800462	0.87062449	0.18015414	0.82042116	0.94292113	-0.14622235	0.87475062	0.96392185	0.089153741	0.65323244	0.95748945	0.015837564	0.74821506	1.4277759	-0.16410133	0.76170737	1.4207126	0.15802512	0.67021066	1.4432959	-0.004724687	0.67533015	1.0948216	-0.24712141	0.68125028	1.0817772	0.22396684	0.83180938	0.90455557	-0.25793376	0.81561157	0.88608638	0.28617674
359	1.432	0.65477106	0.072339424	-0.13350468	0.89387063	0.038567522	0.049187176	0.57500205	0.18346206	-0.14170847	0.75339665	0.055815876	0.091574668	0.6028247	0.18570995	-0.061079314	0.77009379	0.082695992	0.0077850849	0.51041068	0.19632205	-0.087638401	0.69937113	0.033626545	0.048133172	0.84686219	0.45138378	-0.16160553	0.83725933	0.45088518	0.12475413	0.86574417	0.41676472	-0.04406906	0.82432852	0.45764212	-0.0046849256	0.76587909	0.8225783	-0.19023832	0.83185344	0.87080853	0.18036826	0.82689059	0.94464238	-0.1455389	0.87967665	0.96448552	0.08990178	0.66079007	0.95869027	0.015706414	0.75380078	1.4290334	-0.16404646	0.7673227	1.4220918	0.15802962	0.67596886	1.4444873	-0.0046686252	0.67896982	1.0966618	-0.24686439	0.68918893	1.0825792	0.22507002	0.83267428	0.90428811	-0.25832516	0.82709208	0.88854915	0.28583496
360	1.436	0.67283257	0.071577843	-0.13321996	0.89393356	0.038544175	0.049259006	0.59014726	0.18046726	-0.14065493	0.7532782	0.05616564	0.091636543	0.61916047	0.18299327	-0.060407947	0.77030834	0.083045741	0.0078416353	0.52527797	0.191605	-0.0863599	0.69917113	0.03393004	0.048068434	0.85744515	0.45372042	-0.16098216	0.83767534	0.45115232	0.12539408	0.87641054	0.41921034	-0.04336923	0.82546225	0.45776845	-0.003962468	0.77360525	0.8243652	-0.19068654	0.83560721	0.87095988	0.18056303	0.83335366	0.94625099	-0.14484592	0.88458066	0.96497145	0.090663244	0.66586316	0.95979262	0.015453694	0.75939468	1.4302204	-0.16400076	0.77292966	1.4234065	0.15802874	0.6817159	1.4456351	-0.0045921189	0.68260392	1.0984491	-0.24663003	0.69717636	1.0833575	0.22625064	0.83349001	0.90401704	-0.25872205	0.83858046	0.89102066	0.28545701
361	1.44	0.6909529	0.070784943	-0.13296259	0.89401515	0.038521769	0.04933015	0.60541228	0.17736525	-0.13958373	0.75322239	0.056508809	0.091664103	0.6357793	0.180206	-0.059771251	0.77056375	0.083399811	0.0078626746	0.54033154	0.18675628	-0.085064318	0.69898893	0.03424141	0.047969554	0.86794502	0.45596855	-0.16044867	0.83805855	0.45144996	0.12605251	0.88721242	0.4215897	-0.042785343	0.8269334	0.45785711	-0.003105891	0.78106127	0.82602315	-0.19129879	0.83926832	0.87108515	0.18073906	0.83988014	0.94775752	-0.14417614	0.8894644	0.96538451	0.091439721	0.6681871	0.96085501	0.014609123	0.76499613	1.4313279	-0.16395666	0.77852713	1.4246525	0.15802307	0.68744251	1.4467354	-0.0044953839	0.686236	1.1001753	-0.24641878	0.7052517	1.084071	0.22742999	0.83421751	0.90373432	-0.25910323	0.85007186	0.89350031	0.28505925
362	1.444	0.70910969	0.070010893	-0.13273292	0.8941239	0.038505509	0.049398666	0.62080191	0.17416409	-0.13850064	0.75330002	0.056807058	0.091596504	0.65233996	0.17737321	-0.059065871	0.77083454	0.083758984	0.0078696589	0.55558519	0.18179883	-0.083799411	0.69892917	0.034560898	0.047800495	0.87834201	0.45813274	-0.15997968	0.838372	0.45177081	0.12671135	0.89812734	0.423909	-0.042318416	0.82837215	0.45794193	-0.0022698468	0.78824313	0.82758986	-0.19213843	0.84283193	0.87119246	0.18089803	0.84652915	0.94916951	-0.14354793	0.89432616	0.96572514	0.092246993	0.67080154	0.96173008	0.012761416	0.77060118	1.4323483	-0.16391188	0.7841174	1.4258273	0.15801783	0.69315369	1.447773	-0.0043923686	0.68986997	1.1018384	-0.24622989	0.71342994	1.0847109	0.22853089	0.83482072	0.90343612	-0.25943227	0.86154989	0.89598977	0.28466055
363	1.448	0.72729474	0.069265374	-0.13253432	0.89426243	0.038495175	0.049465963	0.63633242	0.17087149	-0.13741774	0.75347833	0.057080366	0.091454083	0.6686533	0.17449979	-0.058249852	0.77114989	0.084132822	0.0078665426	0.57107338	0.17677081	-0.082669694	0.69898974	0.034875299	0.04758015	0.88861297	0.46022303	-0.15955015	0.83852157	0.45209964	0.12732553	0.90906181	0.42617497	-0.041965591	0.82961146	0.45805397	-0.0015670532	0.79547593	0.82910976	-0.19303585	0.84629425	0.8712935	0.18104106	0.85329517	0.95048673	-0.1429429	0.89916337	0.96599307	0.093097072	0.67750277	0.96209007	0.009568432	0.77621043	1.4332762	-0.16386797	0.78970599	1.4269268	0.15801712	0.69886955	1.4487148	-0.004309075	0.69350542	1.1034442	-0.24606139	0.72169465	1.0852902	0.22952197	0.83531695	0.90312794	-0.25969833	0.87300511	0.89849283	0.28426693
